<mxfile host="app.diagrams.net" agent="Mozilla/5.0 (Windows NT 10.0; Win64; x64) AppleWebKit/537.36 (KHTML, like Gecko) Chrome/140.0.0.0 Safari/537.36" version="28.2.5">
  <diagram name="Page-1" id="6o2nZN8N2BC7FZblgDzo">
    <mxGraphModel dx="1032" dy="615" grid="1" gridSize="10" guides="1" tooltips="1" connect="1" arrows="1" fold="1" page="1" pageScale="1" pageWidth="850" pageHeight="1100" math="0" shadow="0">
      <root>
        <mxCell id="0" />
        <mxCell id="1" parent="0" />
        <mxCell id="NM9Ohv6e_FCD_xG3IsBa-4" value="&lt;font style=&quot;font-size: 17px;&quot;&gt;&lt;b&gt;&amp;nbsp;STACK MEMORY&lt;/b&gt;&lt;/font&gt;" style="rounded=0;whiteSpace=wrap;html=1;align=left;verticalAlign=top;" parent="1" vertex="1">
          <mxGeometry x="110" y="320" width="730" height="140" as="geometry" />
        </mxCell>
        <mxCell id="NM9Ohv6e_FCD_xG3IsBa-3" value="&lt;font style=&quot;font-size: 17px;&quot;&gt;&lt;b&gt;&amp;nbsp;HEAP MEMORY&lt;/b&gt;&lt;/font&gt;" style="rounded=0;whiteSpace=wrap;html=1;align=left;verticalAlign=top;" parent="1" vertex="1">
          <mxGeometry x="100" y="50" width="730" height="220" as="geometry" />
        </mxCell>
        <mxCell id="qeIcOJ5nT1hnokHK7IgU-10" style="edgeStyle=orthogonalEdgeStyle;rounded=0;orthogonalLoop=1;jettySize=auto;html=1;exitX=0;exitY=0.5;exitDx=0;exitDy=0;entryX=0;entryY=0.5;entryDx=0;entryDy=0;strokeWidth=2;" parent="1" source="NM9Ohv6e_FCD_xG3IsBa-2" target="NM9Ohv6e_FCD_xG3IsBa-6" edge="1">
          <mxGeometry relative="1" as="geometry">
            <Array as="points">
              <mxPoint x="50" y="420" />
              <mxPoint x="50" y="150" />
            </Array>
          </mxGeometry>
        </mxCell>
        <mxCell id="NM9Ohv6e_FCD_xG3IsBa-2" value="ptr_to_objectA_in_heap" style="rounded=0;whiteSpace=wrap;html=1;" parent="1" vertex="1">
          <mxGeometry x="140" y="390" width="150" height="60" as="geometry" />
        </mxCell>
        <mxCell id="NM9Ohv6e_FCD_xG3IsBa-6" value="mem_block_A&lt;div&gt;&lt;br&gt;&lt;/div&gt;&lt;div&gt;ref_count = 1&lt;/div&gt;" style="rounded=0;whiteSpace=wrap;html=1;" parent="1" vertex="1">
          <mxGeometry x="140" y="100" width="120" height="100" as="geometry" />
        </mxCell>
        <mxCell id="NM9Ohv6e_FCD_xG3IsBa-8" value="mem_block_B&lt;div&gt;&lt;br&gt;&lt;/div&gt;&lt;div&gt;ref_count = 2&lt;/div&gt;" style="rounded=0;whiteSpace=wrap;html=1;" parent="1" vertex="1">
          <mxGeometry x="560" y="100" width="120" height="100" as="geometry" />
        </mxCell>
        <mxCell id="qeIcOJ5nT1hnokHK7IgU-11" style="edgeStyle=orthogonalEdgeStyle;rounded=0;orthogonalLoop=1;jettySize=auto;html=1;exitX=1;exitY=0.5;exitDx=0;exitDy=0;entryX=1;entryY=0.5;entryDx=0;entryDy=0;strokeWidth=2;" parent="1" source="NM9Ohv6e_FCD_xG3IsBa-9" target="NM9Ohv6e_FCD_xG3IsBa-8" edge="1">
          <mxGeometry relative="1" as="geometry" />
        </mxCell>
        <mxCell id="NM9Ohv6e_FCD_xG3IsBa-9" value="ptr_to_objectB_in_heap" style="rounded=0;whiteSpace=wrap;html=1;" parent="1" vertex="1">
          <mxGeometry x="540" y="390" width="150" height="60" as="geometry" />
        </mxCell>
        <mxCell id="qeIcOJ5nT1hnokHK7IgU-3" style="edgeStyle=orthogonalEdgeStyle;rounded=0;orthogonalLoop=1;jettySize=auto;html=1;exitX=1;exitY=0.5;exitDx=0;exitDy=0;entryX=0;entryY=0.75;entryDx=0;entryDy=0;strokeWidth=2;" parent="1" source="qeIcOJ5nT1hnokHK7IgU-1" target="NM9Ohv6e_FCD_xG3IsBa-8" edge="1">
          <mxGeometry relative="1" as="geometry" />
        </mxCell>
        <mxCell id="qeIcOJ5nT1hnokHK7IgU-1" value="shared_ptr ptrB" style="rounded=0;whiteSpace=wrap;html=1;" parent="1" vertex="1">
          <mxGeometry x="160" y="200" width="90" height="30" as="geometry" />
        </mxCell>
        <mxCell id="qeIcOJ5nT1hnokHK7IgU-2" value="shared_ptr ptrA" style="rounded=0;whiteSpace=wrap;html=1;" parent="1" vertex="1">
          <mxGeometry x="575" y="200" width="90" height="30" as="geometry" />
        </mxCell>
        <mxCell id="qeIcOJ5nT1hnokHK7IgU-6" style="edgeStyle=orthogonalEdgeStyle;rounded=0;orthogonalLoop=1;jettySize=auto;html=1;exitX=0.5;exitY=1;exitDx=0;exitDy=0;entryX=0.078;entryY=1.006;entryDx=0;entryDy=0;entryPerimeter=0;strokeWidth=2;dashed=1;" parent="1" source="qeIcOJ5nT1hnokHK7IgU-2" target="NM9Ohv6e_FCD_xG3IsBa-6" edge="1">
          <mxGeometry relative="1" as="geometry" />
        </mxCell>
        <mxCell id="qeIcOJ5nT1hnokHK7IgU-13" value="" style="shape=singleArrow;whiteSpace=wrap;html=1;arrowWidth=0.4;arrowSize=0.4;align=left;verticalAlign=top;rounded=0;rotation=90;" parent="1" vertex="1">
          <mxGeometry x="385" y="520" width="80" height="60" as="geometry" />
        </mxCell>
        <mxCell id="qeIcOJ5nT1hnokHK7IgU-15" value="&lt;font style=&quot;font-size: 17px;&quot;&gt;&lt;b&gt;&amp;nbsp;STACK MEMORY&lt;/b&gt;&lt;/font&gt;" style="rounded=0;whiteSpace=wrap;html=1;align=left;verticalAlign=top;" parent="1" vertex="1">
          <mxGeometry x="110" y="890" width="730" height="140" as="geometry" />
        </mxCell>
        <mxCell id="qeIcOJ5nT1hnokHK7IgU-16" value="&lt;font style=&quot;font-size: 17px;&quot;&gt;&lt;b&gt;&amp;nbsp;HEAP MEMORY&lt;/b&gt;&lt;/font&gt;" style="rounded=0;whiteSpace=wrap;html=1;align=left;verticalAlign=top;" parent="1" vertex="1">
          <mxGeometry x="100" y="620" width="730" height="220" as="geometry" />
        </mxCell>
        <mxCell id="qeIcOJ5nT1hnokHK7IgU-18" value="ptr_to_objectA_in_heap" style="rounded=0;whiteSpace=wrap;html=1;" parent="1" vertex="1">
          <mxGeometry x="140" y="960" width="150" height="60" as="geometry" />
        </mxCell>
        <mxCell id="qeIcOJ5nT1hnokHK7IgU-19" value="mem_block_A&lt;div&gt;&lt;br&gt;&lt;/div&gt;&lt;div&gt;&lt;font style=&quot;color: rgb(0, 0, 0);&quot;&gt;ref_count = 0&lt;/font&gt;&lt;/div&gt;" style="rounded=0;whiteSpace=wrap;html=1;" parent="1" vertex="1">
          <mxGeometry x="140" y="670" width="120" height="100" as="geometry" />
        </mxCell>
        <mxCell id="qeIcOJ5nT1hnokHK7IgU-20" value="mem_block_B&lt;div&gt;&lt;br&gt;&lt;/div&gt;&lt;div&gt;&lt;font style=&quot;color: rgb(0, 0, 0);&quot;&gt;ref_count = 1&lt;/font&gt;&lt;/div&gt;" style="rounded=0;whiteSpace=wrap;html=1;" parent="1" vertex="1">
          <mxGeometry x="560" y="670" width="120" height="100" as="geometry" />
        </mxCell>
        <mxCell id="qeIcOJ5nT1hnokHK7IgU-22" value="ptr_to_objectB_in_heap" style="rounded=0;whiteSpace=wrap;html=1;" parent="1" vertex="1">
          <mxGeometry x="540" y="960" width="150" height="60" as="geometry" />
        </mxCell>
        <mxCell id="qeIcOJ5nT1hnokHK7IgU-23" style="edgeStyle=orthogonalEdgeStyle;rounded=0;orthogonalLoop=1;jettySize=auto;html=1;exitX=1;exitY=0.5;exitDx=0;exitDy=0;entryX=0;entryY=0.75;entryDx=0;entryDy=0;strokeWidth=2;strokeColor=light-dark(#000000,#EDEDED);" parent="1" source="qeIcOJ5nT1hnokHK7IgU-24" target="qeIcOJ5nT1hnokHK7IgU-20" edge="1">
          <mxGeometry relative="1" as="geometry" />
        </mxCell>
        <mxCell id="qeIcOJ5nT1hnokHK7IgU-24" value="shared_ptr ptrB" style="rounded=0;whiteSpace=wrap;html=1;" parent="1" vertex="1">
          <mxGeometry x="160" y="770" width="90" height="30" as="geometry" />
        </mxCell>
        <mxCell id="qeIcOJ5nT1hnokHK7IgU-25" value="shared_ptr ptrA" style="rounded=0;whiteSpace=wrap;html=1;" parent="1" vertex="1">
          <mxGeometry x="575" y="770" width="90" height="30" as="geometry" />
        </mxCell>
        <mxCell id="qeIcOJ5nT1hnokHK7IgU-26" style="edgeStyle=orthogonalEdgeStyle;rounded=0;orthogonalLoop=1;jettySize=auto;html=1;exitX=0.5;exitY=1;exitDx=0;exitDy=0;entryX=0.078;entryY=1.006;entryDx=0;entryDy=0;entryPerimeter=0;strokeWidth=2;strokeColor=light-dark(#000000,#EDEDED);dashed=1;" parent="1" source="qeIcOJ5nT1hnokHK7IgU-25" target="qeIcOJ5nT1hnokHK7IgU-19" edge="1">
          <mxGeometry relative="1" as="geometry" />
        </mxCell>
        <mxCell id="qeIcOJ5nT1hnokHK7IgU-27" value="AFTER MAIN()" style="text;html=1;align=center;verticalAlign=middle;resizable=0;points=[];autosize=1;strokeColor=none;fillColor=none;strokeWidth=1;fontSize=16;fontStyle=1" parent="1" vertex="1">
          <mxGeometry x="435" y="528" width="130" height="30" as="geometry" />
        </mxCell>
      </root>
    </mxGraphModel>
  </diagram>
</mxfile>
